<svg width="138" height="16" viewBox="0 0 138 16" fill="none" xmlns="http://www.w3.org/2000/svg">
<g clip-path="url(#clip0_104_323)">
<path d="M0 0.173828H13.4915C16.933 0.173828 17.8599 2.01256 17.8599 4.8198V5.81153C17.8599 7.90937 17.4172 9.14233 15.3637 9.66054V9.70343C16.695 9.96253 17.8 10.5969 17.8 13.1629V15.8218H13.33V13.942C13.33 12.298 12.8874 11.7584 11.4994 11.7584H4.47164V15.8218H0.0016658L0 0.173828ZM4.46997 7.87184H11.8589C13.0671 7.87184 13.5114 7.35185 13.5114 6.22788V5.70968C13.5114 4.32482 12.8657 4.06572 11.4562 4.06572H4.46664L4.46997 7.87184Z" fill="#1D1D1B"/>
<path d="M23.35 0.173828H39.2978V3.80662H27.815V6.3083H38.687V9.56405H27.815V12.0657H39.5657V15.8272H23.355L23.35 0.173828Z" fill="#1D1D1B"/>
<path d="M44.8911 0.173828H58.3826C62.8525 0.173828 64.4235 1.75167 64.4235 5.62212V10.3789C64.4235 14.2493 62.8525 15.8272 58.3826 15.8272H44.8911V0.173828ZM49.3611 11.8066H57.2959C59.208 11.8066 59.9586 11.2223 59.9586 8.99581V6.88368C59.9586 4.65719 59.213 4.07287 57.2959 4.07287H49.3611V11.8066Z" fill="#1D1D1B"/>
<path d="M69.7522 0.173828H83.242C87.7136 0.173828 89.283 1.75167 89.283 5.62212V10.3789C89.283 14.2493 87.7136 15.8272 83.242 15.8272H69.7522V0.173828ZM74.2222 11.8066H82.1553C84.0674 11.8066 84.818 11.2223 84.818 8.99581V6.88368C84.818 4.65719 84.0724 4.07287 82.1553 4.07287H74.2222V11.8066Z" fill="#1D1D1B"/>
<path d="M94.4519 0.173329H98.9218V9.20616C98.9218 11.195 99.5875 11.9741 101.418 11.9741H105.846C107.677 11.9741 108.343 11.195 108.343 9.20616V0.167969H112.813V10.2444C112.813 14.1363 110.94 15.9946 106.832 15.9946H100.43C96.3207 15.9946 94.4485 14.1363 94.4485 10.2444L94.4519 0.173329Z" fill="#1D1D1B"/>
<path d="M117.985 5.6663C117.985 1.08108 120.381 0 124.409 0H131.576C135.604 0 138 1.08108 138 5.6663V10.3355C138 14.9189 135.604 16 131.576 16H124.409C120.381 16 117.985 14.9189 117.985 10.3355V5.6663ZM122.576 8.84878C122.576 11.1199 123.019 11.9848 125.133 11.9848H130.851C132.966 11.9848 133.409 11.1199 133.409 8.84878V7.16194C133.409 5.21599 132.966 4.0277 130.609 4.0277H125.374C123.019 4.0277 122.576 5.21599 122.576 7.16194V8.84878Z" fill="#1D1D1B"/>
</g>
<defs>
<clipPath id="clip0_104_323">
<rect width="138" height="16" fill="white"/>
</clipPath>
</defs>
</svg>
