<svg width="429" height="112" viewBox="0 0 429 112" fill="none" xmlns="http://www.w3.org/2000/svg">
<g clip-path="url(#clip0_8_302)">
<path d="M260.758 -0.000902422C254.547 -0.00262657 248.556 2.31349 243.944 6.49964C240.322 3.22131 235.834 1.07029 231.022 0.307108C226.211 -0.45607 221.283 0.201339 216.835 2.19971C212.387 4.19808 208.61 7.45167 205.962 11.5664C203.314 15.6811 201.908 20.4805 201.914 25.3831V92.3561C201.914 106.375 211.5 112.003 218.725 112.003V86.6151V9.53376C218.7 8.40696 218.9 7.28658 219.311 6.23837C219.723 5.19016 220.338 4.23523 221.121 3.42961C221.904 2.62399 222.839 1.98391 223.871 1.54691C224.903 1.10992 226.012 0.884818 227.132 0.884818C228.251 0.884818 229.36 1.10992 230.392 1.54691C231.424 1.98391 232.359 2.62399 233.142 3.42961C233.926 4.23523 234.541 5.19016 234.952 6.23837C235.364 7.28658 235.563 8.40696 235.539 9.53376V92.3561C235.539 106.375 245.124 112.003 252.353 112.003V86.6151V9.53376C252.353 7.29003 253.238 5.1382 254.815 3.55164C256.391 1.96509 258.529 1.07377 260.758 1.07377C262.987 1.07377 265.125 1.96509 266.701 3.55164C268.278 5.1382 269.163 7.29003 269.163 9.53376V92.3561C269.163 106.375 278.748 112.003 285.977 112.003V86.6151V25.3831C285.977 18.6509 283.32 12.1943 278.591 7.43391C273.861 2.67348 267.447 -0.000902422 260.758 -0.000902422Z" fill="white"/>
<path d="M92.508 0C85.8194 0 79.4048 2.67438 74.6753 7.43481C69.9458 12.1952 67.2888 18.6518 67.2888 25.384V86.616C67.2888 93.3482 69.9458 99.8048 74.6753 104.565C79.4048 109.326 85.8194 112 92.508 112C99.1966 112 105.611 109.326 110.341 104.565C115.07 99.8048 117.727 93.3482 117.727 86.616V59.5715C110.502 59.5715 100.925 65.1953 100.925 79.2145V102.457C100.925 104.701 100.04 106.853 98.4633 108.439C96.8871 110.026 94.7492 110.917 92.52 110.917C90.2909 110.917 88.153 110.026 86.5768 108.439C85.0005 106.853 84.115 104.701 84.115 102.457V9.53467C84.115 7.29094 85.0005 5.1391 86.5768 3.55255C88.153 1.96599 90.2909 1.07467 92.52 1.07467C94.7492 1.07467 96.8871 1.96599 98.4633 3.55255C100.04 5.1391 100.925 7.29094 100.925 9.53467V44.6836C100.925 46.9274 100.04 49.0792 98.4633 50.6658C96.8871 52.2523 94.7492 53.1436 92.52 53.1436V54.2345C99.2072 54.2313 105.619 51.5549 110.346 46.7939C115.073 42.033 117.728 35.5773 117.727 28.8464V25.384C117.727 18.6518 115.07 12.1952 110.341 7.43481C105.611 2.67438 99.1966 0 92.508 0Z" fill="white"/>
<path d="M353.298 19.6549C353.298 5.63569 343.713 0.0078125 336.484 0.0078125V19.6347V55.9957V92.3567C336.484 106.376 346.069 112 353.298 112V92.3567V55.9957V19.6347V19.6549Z" fill="white"/>
<path d="M319.646 57.3814C319.646 43.3622 310.061 37.7344 302.836 37.7344V58.8238V87.7913V92.3567C302.836 106.376 312.421 112 319.65 112V92.3567V72.6207L319.646 57.3814Z" fill="white"/>
<path d="M302.836 0.0078125V9.83337C302.836 23.8526 312.421 29.4764 319.65 29.4764V19.6549C319.65 5.63569 310.065 0.0078125 302.836 0.0078125Z" fill="white"/>
<path d="M429 1.09083V0C425.688 0 422.409 0.656577 419.349 1.93224C416.289 3.20791 413.509 5.07768 411.167 7.43481C408.825 9.79193 406.968 12.5902 405.7 15.67C404.433 18.7497 403.781 22.0506 403.781 25.384V44.6836C403.774 46.9254 402.887 49.0735 401.312 50.6587C399.737 52.2439 397.603 53.1372 395.376 53.1436C394.622 53.1436 393.899 53.445 393.366 53.9814C392.833 54.5179 392.534 55.2454 392.534 56.004C392.534 56.7627 392.833 57.4902 393.366 58.0267C393.899 58.5631 394.622 58.8644 395.376 58.8644C397.602 58.8676 399.737 59.7574 401.314 61.3394C402.891 62.9214 403.782 65.0672 403.793 67.3083V86.6039C403.793 93.3361 406.45 99.7926 411.179 104.553C415.909 109.314 422.323 111.988 429.012 111.988V110.897C426.784 110.9 424.646 110.013 423.068 108.431C421.49 106.848 420.6 104.7 420.595 102.457V86.616V83.1536C420.595 79.8201 419.943 76.5193 418.675 73.4396C417.408 70.3598 415.55 67.5615 413.208 65.2044C410.867 62.8473 408.086 60.9775 405.027 59.7018C401.967 58.4262 398.687 57.7696 395.376 57.7696C394.909 57.7696 394.462 57.5831 394.132 57.2513C393.803 56.9194 393.618 56.4693 393.618 56C393.618 55.5307 393.803 55.0806 394.132 54.7487C394.462 54.4169 394.909 54.2304 395.376 54.2304C398.687 54.2304 401.967 53.5739 405.027 52.2982C408.086 51.0225 410.867 49.1527 413.208 46.7956C415.55 44.4385 417.408 41.6402 418.675 38.5605C419.943 35.4807 420.595 32.1799 420.595 28.8464V25.384V9.53467C420.599 7.29374 421.487 5.14605 423.062 3.56299C424.638 1.97993 426.774 1.09083 429 1.09083Z" fill="white"/>
<path d="M370.156 0.0078125V19.6347V92.3567C370.156 106.376 379.742 112.004 386.967 112.004V86.6157V19.6549C386.983 5.63569 377.401 0.0078125 370.156 0.0078125Z" fill="white"/>
<path d="M159.829 0.0078125H135.994C135.63 0.0078125 135.281 0.153386 135.024 0.412508C134.766 0.671631 134.622 1.02308 134.622 1.38953V110.618C134.622 110.984 134.766 111.336 135.024 111.595C135.281 111.854 135.63 112 135.994 112H159.829C166.517 112 172.932 109.325 177.662 104.565C182.391 99.8045 185.048 93.348 185.048 86.6157V25.3918C185.048 18.6596 182.391 12.2031 177.662 7.44262C172.932 2.68219 166.517 0.0078125 159.829 0.0078125ZM168.258 25.3838V102.457C168.258 103.57 168.04 104.672 167.616 105.7C167.192 106.728 166.571 107.662 165.788 108.448C165.005 109.234 164.075 109.856 163.053 110.28C162.03 110.704 160.935 110.92 159.829 110.917H152.712C152.545 110.918 152.379 110.885 152.224 110.821C152.069 110.757 151.929 110.662 151.81 110.543C151.691 110.424 151.597 110.283 151.533 110.127C151.469 109.972 151.436 109.805 151.436 109.636V2.37128C151.436 2.20256 151.469 2.0355 151.533 1.87962C151.597 1.72375 151.691 1.58212 151.81 1.46282C151.928 1.34352 152.069 1.24888 152.224 1.18432C152.379 1.11975 152.545 1.08652 152.712 1.08652H159.829C160.934 1.08334 162.028 1.29941 163.05 1.72238C164.072 2.14534 165.001 2.76691 165.783 3.55153C166.566 4.33615 167.188 5.26842 167.612 6.29501C168.037 7.32161 168.256 8.42239 168.258 9.5344V25.3838Z" fill="white"/>
<path d="M50.4264 102.457V86.616V83.1536C50.4264 76.4213 47.7694 69.9648 43.0399 65.2044C38.3104 60.444 31.8958 57.7696 25.2072 57.7696C24.7409 57.7696 24.2937 57.5831 23.964 57.2513C23.6343 56.9194 23.4491 56.4693 23.4491 56C23.4491 55.5307 23.6343 55.0806 23.964 54.7487C24.2937 54.4169 24.7409 54.2304 25.2072 54.2304C28.52 54.232 31.8008 53.5766 34.8619 52.3017C37.923 51.0267 40.7046 49.1572 43.0477 46.7999C45.3908 44.4426 47.2495 41.6438 48.5176 38.5632C49.7858 35.4827 50.4385 32.1809 50.4385 28.8464V25.384C50.4385 18.6518 47.7815 12.1952 43.0519 7.43481C38.3224 2.67438 31.9078 0 25.2192 0C18.5307 0 12.1161 2.67438 7.38654 7.43481C2.65702 12.1952 1.40951e-07 18.6518 0 25.384V92.357C0 106.376 9.58516 112.004 16.8101 112.004V86.616V9.53467C16.7857 8.40786 16.9851 7.28748 17.3966 6.23927C17.8081 5.19106 18.4234 4.23614 19.2065 3.43051C19.9896 2.62489 20.9247 1.98481 21.9568 1.54781C22.989 1.11082 24.0975 0.88572 25.2172 0.88572C26.337 0.88572 27.4455 1.11082 28.4776 1.54781C29.5098 1.98481 30.4449 2.62489 31.228 3.43051C32.011 4.23614 32.6264 5.19106 33.0379 6.23927C33.4494 7.28748 33.6488 8.40786 33.6243 9.53467V44.6836C33.618 46.9254 32.7304 49.0735 31.1555 50.6587C29.5806 52.2439 27.4464 53.1372 25.2192 53.1436C24.4655 53.1436 23.7427 53.445 23.2098 53.9814C22.6768 54.5179 22.3774 55.2454 22.3774 56.004C22.3774 56.7627 22.6768 57.4902 23.2098 58.0267C23.7427 58.5631 24.4655 58.8644 25.2192 58.8644C27.4456 58.8644 29.5811 59.7535 31.1569 61.3366C32.7327 62.9197 33.6201 65.0673 33.6243 67.3083V86.6039C33.6243 93.3361 36.2813 99.7926 41.0109 104.553C45.7404 109.314 52.155 111.988 58.8436 111.988V110.897C56.6158 110.9 54.4779 110.013 52.8996 108.431C51.3213 106.848 50.4318 104.7 50.4264 102.457Z" fill="white"/>
</g>
<defs>
<clipPath id="clip0_8_302">
<rect width="429" height="112" fill="white"/>
</clipPath>
</defs>
</svg>
