<svg width="278" height="74" viewBox="0 0 278 74" fill="none" xmlns="http://www.w3.org/2000/svg">
<g clip-path="url(#clip0_104_447)">
<path d="M169.172 0.000694215C165.155 -0.000444953 161.279 1.52984 158.296 4.29569C155.953 2.12965 153.05 0.708443 149.937 0.204201C146.825 -0.300042 143.637 0.134318 140.76 1.45467C137.883 2.77502 135.44 4.92472 133.727 7.64338C132.014 10.362 131.105 13.533 131.109 16.7723V61.0223C131.109 70.2849 137.309 74.0034 141.983 74.0034V57.2291V6.30038C141.967 5.55589 142.096 4.81564 142.362 4.12307C142.628 3.43051 143.026 2.79957 143.533 2.26728C144.039 1.735 144.644 1.31209 145.312 1.02336C145.979 0.73463 146.696 0.585902 147.421 0.585902C148.145 0.585902 148.862 0.73463 149.53 1.02336C150.197 1.31209 150.802 1.735 151.309 2.26728C151.815 2.79957 152.213 3.43051 152.48 4.12307C152.746 4.81564 152.875 5.55589 152.859 6.30038V61.0223C152.859 70.2849 159.059 74.0034 163.735 74.0034V57.2291V6.30038C163.735 4.81792 164.308 3.39617 165.328 2.34791C166.347 1.29965 167.73 0.710744 169.172 0.710744C170.614 0.710744 171.997 1.29965 173.016 2.34791C174.036 3.39617 174.609 4.81792 174.609 6.30038V61.0223C174.609 70.2849 180.809 74.0034 185.485 74.0034V57.2291V16.7723C185.485 12.3242 183.767 8.05826 180.707 4.91298C177.648 1.7677 173.499 0.000694215 169.172 0.000694215Z" fill="black"/>
<path d="M60.339 0C56.0125 0 51.8632 1.767 48.8039 4.91228C45.7446 8.05757 44.0259 12.3235 44.0259 16.7716V57.2284C44.0259 61.6765 45.7446 65.9424 48.8039 69.0877C51.8632 72.233 56.0125 74 60.339 74C64.6655 74 68.8149 72.233 71.8742 69.0877C74.9335 65.9424 76.6522 61.6765 76.6522 57.2284V39.3597C71.9787 39.3597 65.7837 43.0755 65.7837 52.3381V67.695C65.7837 69.1774 65.2109 70.5992 64.1912 71.6474C63.1716 72.6957 61.7888 73.2846 60.3468 73.2846C58.9049 73.2846 57.522 72.6957 56.5024 71.6474C55.4828 70.5992 54.91 69.1774 54.91 67.695V6.29969C54.91 4.81722 55.4828 3.39548 56.5024 2.34722C57.522 1.29896 58.9049 0.71005 60.3468 0.71005C61.7888 0.71005 63.1716 1.29896 64.1912 2.34722C65.2109 3.39548 65.7837 4.81722 65.7837 6.29969V29.5231C65.7837 31.0056 65.2109 32.4273 64.1912 33.4756C63.1716 34.5239 61.7888 35.1128 60.3468 35.1128V35.8335C64.6724 35.8314 68.8201 34.0631 71.8778 30.9174C74.9355 27.7718 76.6529 23.5064 76.6522 19.0592V16.7716C76.6522 12.3235 74.9335 8.05757 71.8742 4.91228C68.8149 1.767 64.6655 0 60.339 0Z" fill="black"/>
<path d="M229.032 12.987C229.032 3.72428 222.832 0.00585938 218.156 0.00585938V12.9736V36.9979V61.0221C218.156 70.2848 224.356 74.0005 229.032 74.0005V61.0221V36.9979V12.9736V12.987Z" fill="black"/>
<path d="M207.264 37.9127C207.264 28.6501 201.064 24.9316 196.39 24.9316V38.8657V58.005V61.0214C196.39 70.2841 202.59 73.9998 207.266 73.9998V61.0214V47.9816L207.264 37.9127Z" fill="black"/>
<path d="M196.39 0.00585938V6.49774C196.39 15.7604 202.59 19.4762 207.266 19.4762V12.987C207.266 3.72428 201.066 0.00585938 196.39 0.00585938Z" fill="black"/>
<path d="M278 0.720727V0C275.858 0 273.736 0.43381 271.757 1.27666C269.778 2.11951 267.98 3.3549 266.465 4.91229C264.95 6.46967 263.748 8.31856 262.929 10.3534C262.109 12.3882 261.687 14.5691 261.687 16.7716V29.5231C261.683 31.0043 261.108 32.4236 260.09 33.4709C259.071 34.5183 257.691 35.1085 256.25 35.1128C255.762 35.1128 255.295 35.3119 254.95 35.6663C254.605 36.0207 254.412 36.5014 254.412 37.0027C254.412 37.5039 254.605 37.9846 254.95 38.339C255.295 38.6935 255.762 38.8926 256.25 38.8926C257.69 38.8947 259.071 39.4825 260.091 40.5278C261.111 41.5731 261.688 42.9908 261.695 44.4715V57.2204C261.695 61.6685 263.413 65.9344 266.473 69.0797C269.532 72.225 273.681 73.992 278.008 73.992V73.2713C276.567 73.2734 275.184 72.6873 274.163 71.6417C273.142 70.596 272.566 69.1765 272.563 67.695V57.2284V54.9408C272.563 52.7383 272.141 50.5574 271.321 48.5226C270.501 46.4877 269.3 44.6389 267.785 43.0815C266.27 41.5241 264.472 40.2887 262.493 39.4458C260.513 38.603 258.392 38.1692 256.25 38.1692C255.948 38.1692 255.659 38.046 255.446 37.8267C255.232 37.6075 255.113 37.3101 255.113 37C255.113 36.6899 255.232 36.3925 255.446 36.1733C255.659 35.954 255.948 35.8308 256.25 35.8308C258.392 35.8308 260.513 35.397 262.493 34.5542C264.472 33.7113 266.27 32.4759 267.785 30.9185C269.3 29.3612 270.501 27.5123 271.321 25.4774C272.141 23.4426 272.563 21.2617 272.563 19.0592V16.7716V6.29969C272.566 4.81908 273.14 3.40007 274.159 2.35412C275.178 1.30817 276.56 0.720725 278 0.720727Z" fill="black"/>
<path d="M239.937 0.00585938V12.9736V61.0221C239.937 70.2848 246.137 74.0032 250.811 74.0032V57.2289V12.987C250.821 3.72428 244.623 0.00585938 239.937 0.00585938Z" fill="black"/>
<path d="M103.886 0.00585938H88.4685C88.233 0.00585938 88.0072 0.102042 87.8406 0.273248C87.6741 0.444454 87.5806 0.676659 87.5806 0.918781V73.0876C87.5806 73.3297 87.6741 73.5619 87.8406 73.7331C88.0072 73.9043 88.233 74.0005 88.4685 74.0005H103.886C108.212 74.0005 112.362 72.2335 115.421 69.0882C118.48 65.9429 120.199 61.677 120.199 57.2289V16.7774C120.199 12.3293 118.48 8.06343 115.421 4.91814C112.362 1.77286 108.212 0.00585938 103.886 0.00585938ZM109.338 16.7721V67.6955C109.338 68.4309 109.197 69.159 108.923 69.8383C108.649 70.5175 108.247 71.1344 107.74 71.6536C107.234 72.1729 106.633 72.5843 105.971 72.8642C105.31 73.1442 104.601 73.2872 103.886 73.2851H99.2825C99.1742 73.2855 99.0669 73.2638 98.9667 73.2215C98.8666 73.1791 98.7755 73.1168 98.6988 73.0382C98.6221 72.9596 98.5613 72.8662 98.5198 72.7634C98.4782 72.6605 98.4569 72.5503 98.4569 72.4389V1.56744C98.4569 1.45596 98.4782 1.34558 98.5197 1.24259C98.5612 1.1396 98.622 1.04603 98.6987 0.967203C98.7754 0.888379 98.8664 0.825853 98.9665 0.783194C99.0667 0.740535 99.1741 0.718579 99.2825 0.718579H103.886C104.601 0.716473 105.309 0.859233 105.969 1.1387C106.63 1.41816 107.231 1.82884 107.738 2.34724C108.244 2.86565 108.646 3.48162 108.921 4.1599C109.195 4.83819 109.337 5.56549 109.338 6.30021V16.7721Z" fill="black"/>
<path d="M33.1185 67.695V57.2284V54.9408C33.1185 50.4927 31.3998 46.2268 28.3405 43.0815C25.2812 39.9362 21.1319 38.1692 16.8054 38.1692C16.5037 38.1692 16.2145 38.046 16.0012 37.8267C15.7879 37.6075 15.6681 37.3101 15.6681 37C15.6681 36.6899 15.7879 36.3925 16.0012 36.1733C16.2145 35.954 16.5037 35.8308 16.8054 35.8308C18.9483 35.8319 21.0704 35.3988 23.0505 34.5565C25.0306 33.7141 26.8299 32.4789 28.3455 30.9214C29.8612 29.3639 31.0635 27.5146 31.8838 25.4793C32.7041 23.4439 33.1263 21.2624 33.1263 19.0592V16.7716C33.1263 12.3235 31.4076 8.05757 28.3483 4.91229C25.289 1.767 21.1397 0 16.8131 0C12.4866 0 8.33732 1.767 5.27801 4.91229C2.2187 8.05757 0.5 12.3235 0.5 16.7716V61.0216C0.5 70.2843 6.70019 74.0027 11.3737 74.0027V57.2284V6.29969C11.3579 5.55519 11.4868 4.81495 11.753 4.12238C12.0192 3.42981 12.4172 2.79888 12.9238 2.26659C13.4303 1.73431 14.0352 1.31139 14.7028 1.02266C15.3705 0.733935 16.0875 0.585208 16.8118 0.585208C17.5362 0.585208 18.2532 0.733935 18.9208 1.02266C19.5885 1.31139 20.1934 1.73431 20.6999 2.26659C21.2064 2.79888 21.6045 3.42981 21.8707 4.12238C22.1369 4.81495 22.2658 5.55519 22.25 6.29969V29.5231C22.2459 31.0043 21.6718 32.4236 20.653 33.4709C19.6343 34.5183 18.2538 35.1085 16.8131 35.1128C16.3256 35.1128 15.858 35.3119 15.5133 35.6663C15.1686 36.0207 14.9749 36.5014 14.9749 37.0027C14.9749 37.5039 15.1686 37.9846 15.5133 38.339C15.858 38.6935 16.3256 38.8926 16.8131 38.8926C18.2533 38.8926 19.6346 39.48 20.6539 40.526C21.6732 41.5719 22.2472 42.9909 22.25 44.4715V57.2204C22.25 61.6685 23.9687 65.9344 27.028 69.0797C30.0873 72.225 34.2366 73.992 38.5631 73.992V73.2713C37.1221 73.2734 35.7392 72.6873 34.7183 71.6417C33.6973 70.5961 33.1219 69.1765 33.1185 67.695Z" fill="black"/>
</g>
<defs>
<clipPath id="clip0_104_447">
<rect width="277.5" height="74" fill="white" transform="translate(0.5)"/>
</clipPath>
</defs>
</svg>
