<svg width="163" height="35" viewBox="0 0 163 35" fill="none" xmlns="http://www.w3.org/2000/svg">
<path d="M97.9077 16.3203L95.9096 17.3838C95.5945 16.7393 95.2042 16.417 94.7387 16.417C94.5167 16.417 94.3269 16.4922 94.1694 16.6426C94.0118 16.7858 93.933 16.972 93.933 17.2012C93.933 17.6022 94.3985 17.9997 95.3295 18.3936C96.6114 18.945 97.4744 19.4535 97.9184 19.9189C98.3624 20.3844 98.5844 21.0111 98.5844 21.7988C98.5844 22.8086 98.212 23.6536 97.4672 24.334C96.7439 24.9785 95.8702 25.3008 94.8461 25.3008C93.0916 25.3008 91.8491 24.445 91.1186 22.7334L93.1811 21.7773C93.4675 22.2786 93.686 22.5973 93.8364 22.7334C94.13 23.0055 94.4809 23.1416 94.8891 23.1416C95.7055 23.1416 96.1137 22.7692 96.1137 22.0244C96.1137 21.5947 95.7986 21.1937 95.1684 20.8213C94.9249 20.6995 94.6814 20.5814 94.4379 20.4668C94.1944 20.3522 93.9474 20.234 93.6967 20.1123C92.9949 19.7686 92.5008 19.4248 92.2143 19.0811C91.8491 18.6442 91.6664 18.082 91.6664 17.3945C91.6664 16.485 91.978 15.7331 92.601 15.1387C93.2384 14.5443 94.0118 14.2471 94.9213 14.2471C96.2605 14.2471 97.256 14.9382 97.9077 16.3203ZM103.697 16.793V25H101.28V16.793H100.249V14.5371H101.28V10.7021H103.697V14.5371H105.577V16.793H103.697ZM110.078 14.5371V20.542C110.078 22.2751 110.762 23.1416 112.129 23.1416C113.497 23.1416 114.181 22.2751 114.181 20.542V14.5371H116.598V20.5957C116.598 21.4336 116.494 22.1569 116.287 22.7656C116.086 23.3099 115.739 23.8005 115.245 24.2373C114.428 24.9463 113.39 25.3008 112.129 25.3008C110.876 25.3008 109.841 24.9463 109.025 24.2373C108.524 23.8005 108.169 23.3099 107.961 22.7656C107.761 22.2786 107.661 21.5553 107.661 20.5957V14.5371H110.078ZM127.802 6.85645H130.23V25H127.802V23.9043C126.849 24.8353 125.772 25.3008 124.568 25.3008C123.136 25.3008 121.947 24.778 121.002 23.7324C120.064 22.6654 119.595 21.3333 119.595 19.7363C119.595 18.1751 120.064 16.8717 121.002 15.8262C121.933 14.7734 123.104 14.2471 124.515 14.2471C125.739 14.2471 126.835 14.7484 127.802 15.751V6.85645ZM122.066 19.7363C122.066 20.7389 122.334 21.5553 122.871 22.1855C123.423 22.8229 124.117 23.1416 124.955 23.1416C125.85 23.1416 126.574 22.8337 127.125 22.2178C127.677 21.5804 127.952 20.7712 127.952 19.79C127.952 18.8089 127.677 17.9997 127.125 17.3623C126.574 16.7393 125.858 16.4277 124.977 16.4277C124.146 16.4277 123.451 16.7428 122.893 17.373C122.341 18.0104 122.066 18.7982 122.066 19.7363ZM136.137 14.5371V25H133.72V14.5371H136.137ZM133.355 10.1865C133.355 9.764 133.509 9.39876 133.817 9.09082C134.125 8.78288 134.494 8.62891 134.924 8.62891C135.36 8.62891 135.733 8.78288 136.041 9.09082C136.349 9.3916 136.503 9.76042 136.503 10.1973C136.503 10.6341 136.349 11.0065 136.041 11.3145C135.74 11.6224 135.371 11.7764 134.934 11.7764C134.497 11.7764 134.125 11.6224 133.817 11.3145C133.509 11.0065 133.355 10.6305 133.355 10.1865ZM139.145 19.6934C139.145 18.1823 139.685 16.8968 140.767 15.8369C141.848 14.777 143.166 14.2471 144.72 14.2471C146.281 14.2471 147.606 14.7806 148.695 15.8477C149.769 16.9147 150.306 18.2253 150.306 19.7793C150.306 21.3477 149.765 22.6618 148.684 23.7217C147.595 24.7744 146.26 25.3008 144.677 25.3008C143.109 25.3008 141.795 24.7637 140.735 23.6895C139.675 22.6296 139.145 21.2975 139.145 19.6934ZM141.615 19.7363C141.615 20.7819 141.895 21.609 142.453 22.2178C143.026 22.8337 143.782 23.1416 144.72 23.1416C145.665 23.1416 146.421 22.8372 146.987 22.2285C147.552 21.6198 147.835 20.807 147.835 19.79C147.835 18.7731 147.552 17.9603 146.987 17.3516C146.414 16.7357 145.658 16.4277 144.72 16.4277C143.796 16.4277 143.048 16.7357 142.475 17.3516C141.902 17.9674 141.615 18.7624 141.615 19.7363Z" fill="black"/>
<path d="M18.0331 31.2846V26.4679V25.4131C18.0333 24.399 17.8003 23.3949 17.3473 22.4579C16.8943 21.521 16.2301 20.6696 15.3928 19.9525C14.5554 19.2354 13.5613 18.6665 12.4672 18.2784C11.373 17.8903 10.2003 17.6905 9.01603 17.6905C8.84941 17.6905 8.68961 17.6338 8.5718 17.533C8.45398 17.4321 8.38779 17.2953 8.38779 17.1526C8.38779 17.0099 8.45398 16.8731 8.5718 16.7722C8.68961 16.6713 8.84941 16.6147 9.01603 16.6147C10.2005 16.6151 11.3735 16.4158 12.468 16.028C13.5624 15.6402 14.557 15.0715 15.3947 14.3545C16.2324 13.6375 16.897 12.7863 17.3504 11.8493C17.8038 10.9123 18.0372 9.90805 18.0372 8.89385V7.83909C18.0552 6.81526 17.8353 5.79858 17.3902 4.8482C16.9451 3.89782 16.2837 3.03272 15.4445 2.30324C14.6053 1.57376 13.6051 0.994458 12.502 0.599044C11.3989 0.203631 10.215 0 9.01911 0C7.82325 0 6.63933 0.203631 5.53624 0.599044C4.43315 0.994458 3.4329 1.57376 2.59371 2.30324C1.75451 3.03272 1.09312 3.89782 0.648017 4.8482C0.202913 5.79858 -0.0170155 6.81526 0.00102661 7.83909V28.2135C0.00102661 32.4782 3.42759 34.1904 6.0124 34.1904V26.4696V3.02412C6.03288 2.35298 6.35864 1.71521 6.92028 1.24671C7.48191 0.778219 8.23501 0.51604 9.01911 0.51604C9.8032 0.51604 10.5563 0.778219 11.1179 1.24671C11.6796 1.71521 12.0053 2.35298 12.0258 3.02412V13.7106C12.0258 14.3931 11.7091 15.0477 11.1455 15.5304C10.5818 16.013 9.81729 16.2842 9.02013 16.2842C8.77544 16.314 8.55154 16.4185 8.38957 16.5783C8.22759 16.7382 8.13841 16.9427 8.13841 17.1544C8.13841 17.366 8.22759 17.5705 8.38957 17.7304C8.55154 17.8902 8.77544 17.9947 9.02013 18.0245C9.81712 18.025 10.5813 18.2963 11.1449 18.7788C11.7084 19.2614 12.0253 19.9157 12.0258 20.5981V26.4679C12.0258 28.516 12.976 30.4803 14.6675 31.9285C16.3589 33.3768 18.6529 34.1904 21.0449 34.1904V33.8582C20.6497 33.8589 20.2582 33.7928 19.8928 33.6638C19.5274 33.5348 19.1954 33.3453 18.9156 33.1063C18.6358 32.8672 18.4139 32.5833 18.2625 32.2707C18.111 31.9581 18.0331 31.623 18.0331 31.2846Z" fill="black"/>
<path d="M45.107 0.121367C42.8864 0.120899 40.7445 0.825549 39.0956 2.09903C37.8003 1.10168 36.195 0.4473 34.4742 0.215121C32.7534 -0.0170574 30.9909 0.182929 29.4001 0.790862C27.8094 1.3988 26.4586 2.3886 25.5113 3.6404C24.5641 4.89221 24.061 6.35231 24.0631 7.84391V28.2164C24.0631 32.4811 27.4917 34.1934 30.0765 34.1934V26.4726V3.02721C30.0765 2.34465 30.3932 1.69004 30.9568 1.2074C31.5205 0.72476 32.285 0.453614 33.0822 0.453614C33.8793 0.453614 34.6438 0.72476 35.2075 1.2074C35.7712 1.69004 36.0879 2.34465 36.0879 3.02721V28.2164C36.0879 32.4811 39.5165 34.1934 42.1013 34.1934V26.4726V3.02721C42.1218 2.35606 42.4475 1.7183 43.0092 1.2498C43.5708 0.781313 44.3239 0.519135 45.108 0.519135C45.8921 0.519135 46.6452 0.781313 47.2068 1.2498C47.7685 1.7183 48.0942 2.35606 48.1147 3.02721V28.2164C48.1147 32.4811 51.5413 34.1934 54.1261 34.1934V26.4726V7.83863C54.1245 5.7914 53.1735 3.8285 51.4823 2.38138C49.791 0.934265 47.4979 0.121367 45.107 0.121367Z" fill="black"/>
<path d="M81.2083 0.453341V0.121094C78.8163 0.121094 76.5222 0.934717 74.8308 2.38298C73.1394 3.83123 72.1892 5.79549 72.1892 7.84364V13.7133C72.1892 14.3959 71.8725 15.0505 71.3088 15.5331C70.7452 16.0158 69.9807 16.2869 69.1835 16.2869C69.0379 16.2692 68.8896 16.2784 68.7485 16.314C68.6075 16.3496 68.477 16.4107 68.366 16.4932C68.2549 16.5757 68.1658 16.6777 68.1048 16.7922C68.0437 16.9068 68.0121 17.0312 68.0121 17.1571C68.0121 17.283 68.0437 17.4074 68.1048 17.522C68.1658 17.6365 68.2549 17.7385 68.366 17.821C68.477 17.9035 68.6075 17.9646 68.7485 18.0002C68.8896 18.0358 69.0379 18.045 69.1835 18.0273C69.9805 18.0277 70.7447 18.299 71.3082 18.7816C71.8718 19.2641 72.1886 19.9185 72.1892 20.6009V26.4706C72.1892 28.5187 73.1394 30.483 74.8308 31.9312C76.5222 33.3795 78.8163 34.1931 81.2083 34.1931V33.8609C80.8134 33.8611 80.4224 33.7947 80.0575 33.6655C79.6925 33.5362 79.361 33.3467 79.0816 33.1077C78.8023 32.8687 78.5807 32.5849 78.4296 32.2726C78.2784 31.9602 78.2006 31.6254 78.2006 31.2873V26.4706V25.4158C78.2008 24.4018 77.9678 23.3976 77.5148 22.4607C77.0617 21.5237 76.3976 20.6724 75.5603 19.9553C74.7229 19.2381 73.7288 18.6693 72.6347 18.2811C71.5405 17.893 70.3678 17.6933 69.1835 17.6933C69.0169 17.6933 68.8571 17.6366 68.7393 17.5357C68.6214 17.4348 68.5553 17.298 68.5553 17.1553C68.5553 17.0127 68.6214 16.8759 68.7393 16.775C68.8571 16.6741 69.0169 16.6174 69.1835 16.6174C70.3678 16.6174 71.5405 16.4177 72.6347 16.0295C73.7288 15.6414 74.7229 15.0726 75.5603 14.3554C76.3976 13.6383 77.0617 12.787 77.5148 11.85C77.9678 10.9131 78.2008 9.90893 78.2006 8.89488V7.84012V3.02694C78.2006 2.68882 78.2784 2.35402 78.4296 2.04166C78.5807 1.7293 78.8023 1.44551 79.0816 1.20651C79.361 0.967504 79.6925 0.777971 80.0575 0.648739C80.4224 0.519507 80.8134 0.45311 81.2083 0.453341Z" fill="black"/>
<path d="M60.1685 0.121094V6.098V28.2125C60.1685 32.4772 63.595 34.1895 66.1798 34.1895V26.4687V6.098C66.1819 1.82979 62.7553 0.121094 60.1685 0.121094Z" fill="black"/>
</svg>
