<svg width="137" height="197" viewBox="0 0 137 197" fill="none" xmlns="http://www.w3.org/2000/svg">
<g clip-path="url(#clip0_96_2)">
<path d="M88.8629 1.02309L80.5723 3.24455C80.257 3.32923 79.974 3.50535 79.7594 3.75041C79.5448 3.99546 79.4084 4.29831 79.3676 4.62024C74.5289 42.7922 78.7623 67.8489 61.5565 72.4592C44.3508 77.0695 35.4886 53.253 12.2114 22.6113C12.0148 22.3525 11.7446 22.1582 11.4356 22.0534C11.1266 21.9486 10.7928 21.9381 10.4771 22.0231L2.177 24.2471C1.75658 24.3598 1.39782 24.6337 1.17965 25.0086C0.961476 25.3835 0.901757 25.8287 1.01364 26.2462L30.2403 135.321C30.3521 135.739 30.6265 136.095 31.0029 136.31C31.3792 136.526 31.8269 136.584 32.2473 136.471L42.2182 133.799L68.5632 172.339C68.5632 172.339 78.3004 187.12 91.3339 183.628C104.367 180.135 105.41 162.466 105.41 162.466L108.971 115.913L118.942 113.241C119.362 113.129 119.721 112.855 119.939 112.48C120.157 112.105 120.217 111.66 120.105 111.242L90.8794 2.17011C90.8238 1.96257 90.7274 1.76815 90.5958 1.59803C90.4642 1.42791 90.3 1.28545 90.1126 1.17885C89.9252 1.07225 89.7183 1.00361 89.5038 0.976882C89.2893 0.950148 89.0715 0.965851 88.8629 1.02309Z" fill="black" stroke="white" stroke-width="3" stroke-miterlimit="10"/>
<path d="M92.3956 150.434L87.6908 164.579C87.605 164.836 87.4564 165.068 87.2583 165.254C87.0601 165.44 86.8188 165.574 86.5559 165.644C86.293 165.715 86.0168 165.719 85.7523 165.657C85.4877 165.595 85.243 165.469 85.0403 165.289L73.8773 155.396C73.6562 155.2 73.4927 154.949 73.404 154.668C73.3154 154.388 73.3049 154.088 73.3737 153.801C73.4426 153.515 73.5882 153.252 73.795 153.04C74.0019 152.829 74.2623 152.677 74.5487 152.6L90.4292 148.345C90.7149 148.271 91.0153 148.274 91.2987 148.355C91.582 148.436 91.8378 148.592 92.0391 148.806C92.2405 149.02 92.3799 149.284 92.4426 149.57C92.5053 149.857 92.4891 150.155 92.3956 150.434Z" fill="white"/>
<path d="M48.8545 101.07C48.429 100.873 47.9748 100.744 47.5086 100.688C47.1133 100.638 46.7119 100.664 46.3255 100.762C45.9202 100.849 45.5543 101.065 45.2844 101.378C45.1728 101.51 45.0955 101.667 45.0593 101.835C45.0231 102.003 45.0292 102.177 45.077 102.342C45.1283 102.562 45.2625 102.754 45.452 102.879C45.6616 103.004 45.8928 103.088 46.1338 103.128C46.4225 103.183 46.7157 103.212 47.0098 103.214C47.3297 103.216 47.6459 103.23 47.9629 103.246C49.2267 103.321 50.2097 103.608 50.9117 104.106C51.6685 104.671 52.1949 105.488 52.3951 106.408C52.5763 107.053 52.6277 107.727 52.5463 108.393C52.4658 109.009 52.245 109.599 51.9008 110.118C51.5286 110.672 51.0473 111.145 50.4863 111.509C49.8248 111.933 49.0988 112.247 48.3365 112.44C46.6159 112.9 44.7952 112.815 43.1297 112.195L43.8922 108.953C44.4777 109.253 45.1066 109.461 45.7566 109.571C46.2993 109.662 46.8558 109.639 47.3894 109.501C47.8665 109.412 48.2922 109.146 48.5798 108.757C48.6815 108.61 48.7506 108.444 48.7822 108.269C48.8139 108.094 48.8075 107.914 48.7634 107.742C48.7192 107.558 48.6336 107.386 48.513 107.239C48.383 107.098 48.2213 106.99 48.041 106.924C47.7971 106.834 47.5427 106.775 47.2839 106.748C46.9826 106.714 46.6208 106.683 46.1986 106.655C45.7001 106.633 45.2043 106.583 44.7198 106.538C44.2469 106.487 43.7858 106.36 43.3548 106.161C42.9211 105.956 42.5372 105.661 42.229 105.295C41.8603 104.831 41.5996 104.291 41.4657 103.714C41.2906 103.092 41.2385 102.441 41.3124 101.798C41.3849 101.212 41.5807 100.646 41.8873 100.139C42.2038 99.6218 42.6263 99.1762 43.1272 98.8315C43.7 98.4411 44.3382 98.1557 45.0116 97.9891C45.7291 97.8029 46.4668 97.7061 47.2077 97.701C47.9956 97.6878 48.7817 97.7719 49.5481 97.9514L48.8545 101.07Z" fill="white"/>
<path d="M57.0881 100.752L62.2179 99.3774L60.814 94.138L64.368 93.1858L68.0059 106.763L64.4519 107.715L62.9519 102.117L57.8221 103.491L59.3222 109.09L55.7682 110.042L52.1302 96.4648L55.6843 95.5125L57.0881 100.752Z" fill="white"/>
<path d="M68.4348 99.372C68.165 98.4014 68.0987 97.3855 68.2398 96.387C68.3746 95.436 68.6975 94.5202 69.1897 93.6926C69.6964 92.8479 70.3682 92.1124 71.1655 91.5298C72.0384 90.8948 73.0249 90.4312 74.0717 90.1639C75.1103 89.8742 76.194 89.7831 77.2653 89.8954C78.2525 90.0005 79.2082 90.2996 80.0768 90.7754C80.9204 91.2438 81.6612 91.8747 82.2561 92.6313C82.8766 93.426 83.3261 94.3393 83.5766 95.3148C83.8441 96.2801 83.9101 97.2902 83.7705 98.2831C83.6349 99.2371 83.3091 100.155 82.812 100.983C82.2983 101.83 81.6198 102.566 80.8163 103.148C79.9447 103.781 78.9606 104.244 77.9164 104.512C76.8761 104.804 75.79 104.896 74.7165 104.782C73.7349 104.679 72.7853 104.379 71.9249 103.9C71.0839 103.429 70.346 102.797 69.7542 102.039C69.1358 101.249 68.6868 100.342 68.4348 99.372ZM72.1537 98.3755C72.2887 98.8916 72.5334 99.3726 72.8714 99.7862C73.1891 100.178 73.5802 100.506 74.0233 100.75C74.4665 100.993 74.9536 101.148 75.4572 101.206C75.977 101.267 76.5042 101.228 77.0097 101.09C77.5163 100.957 77.9926 100.727 78.412 100.414C78.8216 100.111 79.169 99.7328 79.4352 99.2997C79.7034 98.868 79.882 98.3875 79.9604 97.8867C80.0464 97.3595 80.0179 96.8206 79.8767 96.3061C79.7413 95.7902 79.4966 95.3092 79.1589 94.8955C78.8393 94.5022 78.4447 94.1757 77.9976 93.9344C77.5505 93.6924 77.0605 93.5384 76.5542 93.4808C76.0345 93.4204 75.5075 93.4607 75.0026 93.5996C74.4959 93.7321 74.0194 93.9606 73.5994 94.2726C73.192 94.5743 72.8477 94.952 72.5857 95.3845C72.3258 95.8184 72.1508 96.297 72.0699 96.795C71.9844 97.3221 72.0129 97.861 72.1537 98.3755Z" fill="white"/>
<path d="M91.1974 100.548L87.6434 101.501L84.0055 87.9238L89.6615 86.4083C91.1991 85.9963 92.4785 86.0787 93.509 86.653C94.5396 87.2273 95.2441 88.2332 95.6296 89.6721C96.0152 91.111 95.9057 92.3384 95.3035 93.3502C94.7014 94.362 93.6306 95.0707 92.093 95.4827L89.991 96.0459L91.1974 100.548ZM89.2291 93.2027L90.4085 92.8867C91.7126 92.5373 92.2134 91.7979 91.9108 90.6686C91.6082 89.5393 90.8051 89.1504 89.5016 89.5019L88.3222 89.8179L89.2291 93.2027Z" fill="white"/>
</g>
<defs>
<clipPath id="clip0_96_2">
<rect width="94" height="178" fill="white" transform="translate(0 24.3281) rotate(-15)"/>
</clipPath>
</defs>
</svg>
